<mxfile host="www.draw.io" modified="2019-12-26T19:05:18.039Z" agent="Mozilla/5.0 (Windows NT 6.3; WOW64) AppleWebKit/537.36 (KHTML, like Gecko) Chrome/78.0.3904.108 YaBrowser/19.12.2.252 Yowser/2.5 Safari/537.36" etag="t6FOGOr96kP1ahI4mxVI" version="12.4.3" type="github" pages="1">
  <diagram id="FT1fXymrrDGErHQfgEmq" name="Page-1">
    <mxGraphModel dx="663" dy="574" grid="1" gridSize="10" guides="1" tooltips="1" connect="1" arrows="1" fold="1" page="1" pageScale="1" pageWidth="827" pageHeight="1169" math="0" shadow="0">
      <root>
        <mxCell id="0"/>
        <mxCell id="1" parent="0"/>
        <mxCell id="QylwTeCBi1zsB4fjrQZm-26" value="" style="group" vertex="1" connectable="0" parent="1">
          <mxGeometry x="180" y="240" width="470" height="130" as="geometry"/>
        </mxCell>
        <mxCell id="QylwTeCBi1zsB4fjrQZm-4" value="&lt;b&gt;Model&lt;/b&gt;" style="rounded=1;whiteSpace=wrap;html=1;fillColor=#CCCCFF;" vertex="1" parent="QylwTeCBi1zsB4fjrQZm-26">
          <mxGeometry x="380" width="90" height="130" as="geometry"/>
        </mxCell>
        <mxCell id="QylwTeCBi1zsB4fjrQZm-7" value="&lt;b&gt;View&lt;/b&gt;" style="rounded=1;whiteSpace=wrap;html=1;fillColor=#FFF2CC;" vertex="1" parent="QylwTeCBi1zsB4fjrQZm-26">
          <mxGeometry x="80" width="90" height="130" as="geometry"/>
        </mxCell>
        <mxCell id="QylwTeCBi1zsB4fjrQZm-17" style="edgeStyle=orthogonalEdgeStyle;rounded=0;orthogonalLoop=1;jettySize=auto;html=1;exitX=0.75;exitY=0;exitDx=0;exitDy=0;entryX=0.25;entryY=0;entryDx=0;entryDy=0;" edge="1" parent="QylwTeCBi1zsB4fjrQZm-26" source="QylwTeCBi1zsB4fjrQZm-8" target="QylwTeCBi1zsB4fjrQZm-4">
          <mxGeometry relative="1" as="geometry"/>
        </mxCell>
        <mxCell id="QylwTeCBi1zsB4fjrQZm-21" value="2" style="text;html=1;align=center;verticalAlign=middle;resizable=0;points=[];;labelBackgroundColor=#ffffff;" vertex="1" connectable="0" parent="QylwTeCBi1zsB4fjrQZm-17">
          <mxGeometry x="-0.0952" y="1" relative="1" as="geometry">
            <mxPoint x="6.79" as="offset"/>
          </mxGeometry>
        </mxCell>
        <mxCell id="QylwTeCBi1zsB4fjrQZm-19" style="edgeStyle=orthogonalEdgeStyle;rounded=0;orthogonalLoop=1;jettySize=auto;html=1;exitX=0.25;exitY=0;exitDx=0;exitDy=0;entryX=0.25;entryY=0;entryDx=0;entryDy=0;strokeColor=#B3B3B3;" edge="1" parent="QylwTeCBi1zsB4fjrQZm-26" source="QylwTeCBi1zsB4fjrQZm-8" target="QylwTeCBi1zsB4fjrQZm-7">
          <mxGeometry relative="1" as="geometry"/>
        </mxCell>
        <mxCell id="QylwTeCBi1zsB4fjrQZm-23" value="4" style="text;html=1;align=center;verticalAlign=middle;resizable=0;points=[];;labelBackgroundColor=#ffffff;" vertex="1" connectable="0" parent="QylwTeCBi1zsB4fjrQZm-19">
          <mxGeometry x="0.1345" y="2" relative="1" as="geometry">
            <mxPoint x="15.41" y="-2.79" as="offset"/>
          </mxGeometry>
        </mxCell>
        <mxCell id="QylwTeCBi1zsB4fjrQZm-8" value="&lt;b&gt;Presenter&lt;/b&gt;" style="rounded=1;whiteSpace=wrap;html=1;fillColor=#CCFFE6;" vertex="1" parent="QylwTeCBi1zsB4fjrQZm-26">
          <mxGeometry x="230" width="90" height="130" as="geometry"/>
        </mxCell>
        <mxCell id="QylwTeCBi1zsB4fjrQZm-18" style="edgeStyle=orthogonalEdgeStyle;rounded=0;orthogonalLoop=1;jettySize=auto;html=1;exitX=0.75;exitY=1;exitDx=0;exitDy=0;entryX=0.75;entryY=1;entryDx=0;entryDy=0;strokeColor=#B3B3B3;" edge="1" parent="QylwTeCBi1zsB4fjrQZm-26" source="QylwTeCBi1zsB4fjrQZm-4" target="QylwTeCBi1zsB4fjrQZm-8">
          <mxGeometry relative="1" as="geometry"/>
        </mxCell>
        <mxCell id="QylwTeCBi1zsB4fjrQZm-22" value="3" style="text;html=1;align=center;verticalAlign=middle;resizable=0;points=[];;labelBackgroundColor=#ffffff;" vertex="1" connectable="0" parent="QylwTeCBi1zsB4fjrQZm-18">
          <mxGeometry x="-0.0836" y="-1" relative="1" as="geometry">
            <mxPoint x="-10.45" as="offset"/>
          </mxGeometry>
        </mxCell>
        <mxCell id="QylwTeCBi1zsB4fjrQZm-13" style="edgeStyle=orthogonalEdgeStyle;rounded=0;orthogonalLoop=1;jettySize=auto;html=1;exitX=0.75;exitY=1;exitDx=0;exitDy=0;entryX=0.25;entryY=1;entryDx=0;entryDy=0;" edge="1" parent="QylwTeCBi1zsB4fjrQZm-26" source="QylwTeCBi1zsB4fjrQZm-7" target="QylwTeCBi1zsB4fjrQZm-8">
          <mxGeometry relative="1" as="geometry"/>
        </mxCell>
        <mxCell id="QylwTeCBi1zsB4fjrQZm-20" value="1" style="text;html=1;align=center;verticalAlign=middle;resizable=0;points=[];;labelBackgroundColor=#ffffff;" vertex="1" connectable="0" parent="QylwTeCBi1zsB4fjrQZm-13">
          <mxGeometry x="-0.3238" y="-1" relative="1" as="geometry">
            <mxPoint x="23.69" y="-2.1399999999999997" as="offset"/>
          </mxGeometry>
        </mxCell>
        <mxCell id="QylwTeCBi1zsB4fjrQZm-11" style="edgeStyle=orthogonalEdgeStyle;rounded=0;orthogonalLoop=1;jettySize=auto;html=1;exitX=0.5;exitY=0.5;exitDx=0;exitDy=0;exitPerimeter=0;entryX=0;entryY=0.5;entryDx=0;entryDy=0;" edge="1" parent="QylwTeCBi1zsB4fjrQZm-26" source="QylwTeCBi1zsB4fjrQZm-9" target="QylwTeCBi1zsB4fjrQZm-7">
          <mxGeometry relative="1" as="geometry"/>
        </mxCell>
        <mxCell id="QylwTeCBi1zsB4fjrQZm-9" value="User" style="shape=umlActor;verticalLabelPosition=bottom;labelBackgroundColor=#ffffff;verticalAlign=top;html=1;outlineConnect=0;fillColor=#FFFFFF;" vertex="1" parent="QylwTeCBi1zsB4fjrQZm-26">
          <mxGeometry y="35" width="30" height="60" as="geometry"/>
        </mxCell>
        <mxCell id="QylwTeCBi1zsB4fjrQZm-25" style="edgeStyle=orthogonalEdgeStyle;rounded=0;orthogonalLoop=1;jettySize=auto;html=1;exitX=0;exitY=0.25;exitDx=0;exitDy=0;entryX=0.475;entryY=0.402;entryDx=0;entryDy=0;entryPerimeter=0;strokeColor=#B3B3B3;" edge="1" parent="QylwTeCBi1zsB4fjrQZm-26" source="QylwTeCBi1zsB4fjrQZm-7" target="QylwTeCBi1zsB4fjrQZm-9">
          <mxGeometry relative="1" as="geometry"/>
        </mxCell>
      </root>
    </mxGraphModel>
  </diagram>
</mxfile>
